<?xml version="1.0" encoding="utf-8"?>
<!-- Generator: Adobe Illustrator 21.0.2, SVG Export Plug-In . SVG Version: 6.00 Build 0)  -->
<svg version="1.1" id="Layer_1" xmlns="http://www.w3.org/2000/svg" xmlns:xlink="http://www.w3.org/1999/xlink" x="0px" y="0px"
	 viewBox="0 0 422.1 220.4" style="enable-background:new 0 0 422.1 220.4;" xml:space="preserve">
<style type="text/css">
	.st0{fill:none;stroke:#0000FF;stroke-miterlimit:10;}
	.st1{fill:none;stroke:#000000;stroke-miterlimit:10;}
	.st2{fill:#FFFFFF;stroke:#000000;stroke-miterlimit:10;}
</style>
<line class="st0" x1="399.3" y1="22.3" x2="157.9" y2="183.9"/>
<polyline class="st0" points="399.3,22.3 22.7,22.3 285.7,198.4 284.3,198.4 233.3,198.4 208.9,183.9 157.9,183.9 181.5,168.1 "/>
<polygon class="st1" points="228,201.5 203.7,187 215.5,180.4 239.8,194.9 "/>
<rect x="398.8" y="2.5" transform="matrix(0.9568 -0.2907 0.2907 0.9568 11.8331 119.4118)" class="st2" width="18" height="34.8"/>
<rect x="5.3" y="2.5" transform="matrix(0.9568 0.2907 -0.2907 0.9568 6.3962 -3.2958)" class="st2" width="18" height="34.8"/>
<path class="st2" d="M286.9,181.2L286.9,181.2c0.2,5.8-0.6,11.7-2.3,17.5c-1.8,5.8-4.4,11.1-7.8,15.7l0,0.1l17.2,5.2l10.1-33.3
	L286.9,181.2z"/>
<path class="st2" d="M165.8,199.8L165.8,199.8c-3.4-4.7-6-10-7.8-15.8s-2.5-11.7-2.3-17.4l0-0.1l-17.2,5.2l10.1,33.3L165.8,199.8z"
	/>
</svg>
